<svg width="16" height="16" viewBox="0 0 16 16" fill="none" xmlns="http://www.w3.org/2000/svg">
<path opacity="0.2" d="M5.36577 6.30955C5.98472 6.04037 6.03411 5.11903 5.37545 4.65851C4.95418 4.36398 4.42879 4.26486 4.12673 4.5938C3.80869 4.96523 3.94243 5.41827 3.94243 5.41827C3.94243 5.41827 3.52927 4.87031 2.93226 5.07497C2.41063 5.25378 2.25491 5.9476 2.52238 6.42211C3.01597 7.29777 3.81799 7.05428 3.81799 7.05428C3.81799 7.05428 3.53135 7.47444 3.86241 8.05237C4.19346 8.63029 4.92849 8.91813 5.38884 8.49921C5.99571 7.84229 5.31086 7.10608 5.31086 7.10608L6.60649 7.73823L6.71421 6.50412L5.36577 6.30955Z" fill="black"/>
<path d="M4.96343 6.64549C5.58238 6.37631 5.63177 5.45496 4.9731 4.99445C4.55183 4.69992 4.02645 4.6008 3.72439 4.92973C3.40634 5.30117 3.54008 5.75421 3.54008 5.75421C3.54008 5.75421 3.12692 5.20625 2.52991 5.4109C2.00829 5.58972 1.85256 6.28353 2.12003 6.75804C2.61362 7.63371 3.41565 7.39022 3.41565 7.39022C3.41565 7.39022 3.12901 7.81038 3.46006 8.3883C3.79112 8.96623 4.52615 9.25407 4.9865 8.83515C5.59337 8.17822 4.90851 7.44202 4.90851 7.44202L6.20414 8.07416L6.31187 6.84006L4.96343 6.64549Z" fill="black"/>
<path opacity="0.2" d="M7.57916 5.07339C7.08771 3.97132 9.91856 2.77557 10.5379 2.43461C11.0212 3.27018 12.2684 4.82089 10.9643 5.62445C10.1649 6.07202 9.69328 5.69597 9.69328 5.69597L9.40753 6.67776L8.18116 6.47676L8.71791 5.53232C8.71791 5.53232 7.9057 5.80565 7.57916 5.07339Z" fill="black"/>
<path d="M7.19244 4.60464C6.70099 3.50257 9.53184 2.30682 10.1512 1.96586C10.6345 2.80143 11.8816 4.35214 10.5776 5.1557C9.77816 5.60327 9.30657 5.22722 9.30657 5.22722L9.02081 6.20901L7.79444 6.00801L8.33119 5.06357C8.33119 5.06357 7.51898 5.3369 7.19244 4.60464Z" fill="black"/>
<path opacity="0.2" d="M13.2009 11.5734C13.5809 10.7525 12.9956 9.78483 12.4063 9.20563C12.7671 9.06889 12.9976 8.57204 12.8094 8.20458C12.5819 7.76044 12.2148 7.48933 11.7166 7.44639C11.2639 7.40736 11.1262 7.54234 10.7327 7.80072C10.3829 8.03045 10.1542 8.20712 9.39613 8.40735C9.93469 9.0258 10.1882 9.44737 10.2804 10.0771C10.5979 12.2464 12.3099 12.8094 13.2009 11.5734Z" fill="black"/>
<path d="M13.4978 11.1515C13.8778 10.3307 13.2925 9.36295 12.7031 8.78375C13.064 8.64702 13.2945 8.15017 13.1063 7.78271C12.8788 7.33856 12.5117 7.06746 12.0135 7.02451C11.5607 6.98549 11.4231 7.12047 11.0296 7.37884C10.6797 7.60857 10.4511 7.78525 9.693 7.98547C10.2316 8.60392 10.4851 9.02549 10.5772 9.65527C10.8948 11.8245 12.6068 12.3875 13.4978 11.1515Z" fill="black"/>
<path opacity="0.2" d="M8.44666 11.9229C7.67041 12.0907 7.16185 11.8938 5.83127 13.5515C5.77646 11.8785 5.75668 11.5841 5.07348 10.5607C6.83089 10.0261 6.49149 9.9158 7.66738 8.92484C7.58115 10.1662 7.52145 10.5535 8.44666 11.9229Z" fill="black"/>
<path d="M8.91541 12.5127C8.13916 12.6805 7.6306 12.4837 6.30002 14.1413C6.24521 12.4684 6.22543 12.174 5.54223 11.1506C7.29964 10.616 6.96024 10.5056 8.13613 9.51468C8.0499 10.7561 7.9902 11.1434 8.91541 12.5127Z" fill="black"/>
</svg>
